<svg id="Capa_1" enable-background="new 0 0 511.985 511.985" height="512" viewBox="0 0 511.985 511.985" width="512" xmlns="http://www.w3.org/2000/svg"><path d="m498.817 13.158c-17.545-17.544-46.094-17.544-63.639 0l-31.82 31.82c-5.857-5.858-15.356-5.859-21.213 0l-31.82 31.82-10.607-10.607c-17.545-17.546-46.095-17.545-63.64 0l-106.065 106.067c-5.858 5.858-5.858 15.355 0 21.213 5.857 5.858 15.355 5.859 21.213 0l106.066-106.066c5.861-5.861 15.351-5.863 21.214 0l10.607 10.607-271.688 271.687c-1.249 1.249-2.392 2.95-3.049 4.399l-53.033 116.673c-.81 1.78-1.336 4.038-1.334 6.207-.011 10.98 11.347 18.116 21.181 13.661.996-.451 116.588-52.993 116.688-53.039 1.478-.674 3.185-1.835 4.399-3.049l324.721-324.721c5.858-5.858 5.858-15.355 0-21.213l31.819-31.82c17.546-17.544 17.546-46.093 0-63.639zm-233.345 275.773-42.427-42.427 127.28-127.279 42.426 42.427zm-63.639-21.214 42.427 42.427-112.589 112.588-42.427-42.426zm-129.103 138.5 33.029 33.029-60.554 27.525zm341.235-265.779-42.426-42.427 21.213-21.213 42.427 42.426zm63.639-84.853-31.819 31.819c-4.24-4.239-20.955-20.955-21.214-21.213l31.82-31.82c5.85-5.849 15.365-5.848 21.213 0 5.849 5.849 5.849 15.366 0 21.214z"/></svg>